# xmcd
#
# Track frame offsets: 
#        150
#        34058
#        57963
#        91343
#        119365
#        163805
#
# Disc length: 2604 seconds
#
# Revision: 2
# Processed by: cddbd v1.5.2PL0 Copyright (c) Steve Scherf et al.
# Submitted via: ExactAudioCopy v1.0b3
#
DISCID=490a2a06
DTITLE=Booker Ervin - Cookin'
DYEAR=1960
DGENRE=bop
TTITLE0=Dee Da Do
TTITLE1=Mr. Wiggles
TTITLE2=You Don't Know What Love Is
TTITLE3=Down In The Dumps
TTITLE4=Well, Well
TTITLE5=Autumn Leaves
EXTD=YEAR: 1960
EXTT0=
EXTT1=
EXTT2=
EXTT3=
EXTT4=
EXTT5=
PLAYORDER=
